<svg width="310" height="74" viewBox="0 0 310 74" fill="none" xmlns="http://www.w3.org/2000/svg">
<rect width="309.139" height="74" fill="#CC8B86"/>
<path d="M76.3892 44.16C75.3226 44.16 74.3292 43.98 73.4092 43.62C72.5026 43.26 71.7159 42.76 71.0492 42.12C70.3826 41.4667 69.8626 40.7067 69.4892 39.84C69.1159 38.9733 68.9292 38.0267 68.9292 37C68.9292 35.9733 69.1159 35.0267 69.4892 34.16C69.8626 33.2933 70.3826 32.54 71.0492 31.9C71.7159 31.2467 72.5026 30.74 73.4092 30.38C74.3159 30.02 75.3092 29.84 76.3892 29.84C77.4559 29.84 78.4359 30.02 79.3292 30.38C80.2359 30.7267 81.0226 31.2267 81.6892 31.88C82.3692 32.52 82.8892 33.2733 83.2492 34.14C83.6226 35.0067 83.8092 35.96 83.8092 37C83.8092 38.04 83.6226 38.9933 83.2492 39.86C82.8892 40.7267 82.3692 41.4867 81.6892 42.14C81.0226 42.78 80.2359 43.28 79.3292 43.64C78.4359 43.9867 77.4559 44.16 76.3892 44.16ZM76.3892 42.38C77.1626 42.38 77.8759 42.2467 78.5292 41.98C79.1959 41.7133 79.7692 41.34 80.2492 40.86C80.7426 40.3667 81.1226 39.7933 81.3892 39.14C81.6692 38.4867 81.8092 37.7733 81.8092 37C81.8092 36.2267 81.6692 35.5133 81.3892 34.86C81.1226 34.2067 80.7426 33.64 80.2492 33.16C79.7692 32.6667 79.1959 32.2867 78.5292 32.02C77.8759 31.7533 77.1626 31.62 76.3892 31.62C75.6026 31.62 74.8759 31.7533 74.2092 32.02C73.5559 32.2867 72.9826 32.6667 72.4892 33.16C71.9959 33.64 71.6092 34.2067 71.3292 34.86C71.0626 35.5133 70.9292 36.2267 70.9292 37C70.9292 37.7733 71.0626 38.4867 71.3292 39.14C71.6092 39.7933 71.9959 40.3667 72.4892 40.86C72.9826 41.34 73.5559 41.7133 74.2092 41.98C74.8759 42.2467 75.6026 42.38 76.3892 42.38ZM91.3424 44.12C90.2624 44.12 89.2957 43.8867 88.4424 43.42C87.6024 42.9533 86.9424 42.3133 86.4624 41.5C85.9824 40.6867 85.7424 39.7533 85.7424 38.7C85.7424 37.6467 85.9824 36.7133 86.4624 35.9C86.9424 35.0867 87.6024 34.4533 88.4424 34C89.2957 33.5333 90.2624 33.3 91.3424 33.3C92.3024 33.3 93.1557 33.4933 93.9024 33.88C94.6624 34.2533 95.249 34.8133 95.6624 35.56L94.2024 36.5C93.8557 35.98 93.429 35.6 92.9224 35.36C92.429 35.1067 91.8957 34.98 91.3224 34.98C90.629 34.98 90.009 35.1333 89.4624 35.44C88.9157 35.7467 88.4824 36.18 88.1624 36.74C87.8424 37.2867 87.6824 37.94 87.6824 38.7C87.6824 39.46 87.8424 40.12 88.1624 40.68C88.4824 41.24 88.9157 41.6733 89.4624 41.98C90.009 42.2867 90.629 42.44 91.3224 42.44C91.8957 42.44 92.429 42.32 92.9224 42.08C93.429 41.8267 93.8557 41.44 94.2024 40.92L95.6624 41.84C95.249 42.5733 94.6624 43.14 93.9024 43.54C93.1557 43.9267 92.3024 44.12 91.3424 44.12ZM100.111 44V34.58L100.591 35.08H96.2314V33.4H105.911V35.08H101.571L102.031 34.58V44H100.111ZM114.375 44V41.76L114.275 41.34V37.52C114.275 36.7067 114.035 36.08 113.555 35.64C113.088 35.1867 112.381 34.96 111.435 34.96C110.808 34.96 110.195 35.0667 109.595 35.28C108.995 35.48 108.488 35.7533 108.075 36.1L107.275 34.66C107.821 34.22 108.475 33.8867 109.235 33.66C110.008 33.42 110.815 33.3 111.655 33.3C113.108 33.3 114.228 33.6533 115.015 34.36C115.801 35.0667 116.195 36.1467 116.195 37.6V44H114.375ZM110.895 44.12C110.108 44.12 109.415 43.9867 108.815 43.72C108.228 43.4533 107.775 43.0867 107.455 42.62C107.135 42.14 106.975 41.6 106.975 41C106.975 40.4267 107.108 39.9067 107.375 39.44C107.655 38.9733 108.101 38.6 108.715 38.32C109.341 38.04 110.181 37.9 111.235 37.9H114.595V39.28H111.315C110.355 39.28 109.708 39.44 109.375 39.76C109.041 40.08 108.875 40.4667 108.875 40.92C108.875 41.44 109.081 41.86 109.495 42.18C109.908 42.4867 110.481 42.64 111.215 42.64C111.935 42.64 112.561 42.48 113.095 42.16C113.641 41.84 114.035 41.3733 114.275 40.76L114.655 42.08C114.401 42.7067 113.955 43.2067 113.315 43.58C112.675 43.94 111.868 44.12 110.895 44.12ZM119.652 44V33.4H124.572C125.812 33.4 126.785 33.64 127.492 34.12C128.212 34.5867 128.572 35.2533 128.572 36.12C128.572 36.9867 128.232 37.66 127.552 38.14C126.885 38.6067 125.999 38.84 124.892 38.84L125.192 38.32C126.459 38.32 127.399 38.5533 128.012 39.02C128.625 39.4867 128.932 40.1733 128.932 41.08C128.932 42 128.585 42.72 127.892 43.24C127.212 43.7467 126.165 44 124.752 44H119.652ZM121.532 42.52H124.612C125.412 42.52 126.012 42.4 126.412 42.16C126.812 41.9067 127.012 41.5067 127.012 40.96C127.012 40.4 126.825 39.9933 126.452 39.74C126.092 39.4733 125.519 39.34 124.732 39.34H121.532V42.52ZM121.532 37.96H124.412C125.145 37.96 125.699 37.8267 126.072 37.56C126.459 37.28 126.652 36.8933 126.652 36.4C126.652 35.8933 126.459 35.5133 126.072 35.26C125.699 35.0067 125.145 34.88 124.412 34.88H121.532V37.96ZM131.937 44V33.4H133.857V41.12L140.357 33.4H142.097V44H140.177V36.28L133.697 44H131.937ZM147.924 44V34.58L148.404 35.08H144.044V33.4H153.724V35.08H149.384L149.844 34.58V44H147.924ZM160.587 37C161.934 37.0133 162.961 37.32 163.667 37.92C164.374 38.52 164.727 39.3667 164.727 40.46C164.727 41.6067 164.341 42.4933 163.567 43.12C162.794 43.7333 161.701 44.0333 160.287 44.02L155.687 44V33.4H157.607V36.98L160.587 37ZM160.127 42.56C160.994 42.5733 161.647 42.4 162.087 42.04C162.541 41.68 162.767 41.1467 162.767 40.44C162.767 39.7467 162.547 39.24 162.107 38.92C161.667 38.6 161.007 38.4333 160.127 38.42L157.607 38.38V42.54L160.127 42.56ZM175.662 44.14C176.596 44.14 177.422 44.0067 178.142 43.74C178.876 43.46 179.456 43.08 179.882 42.6C180.309 42.1067 180.522 41.54 180.522 40.9C180.522 40.1 180.182 39.4667 179.502 39C178.822 38.5333 177.889 38.3 176.702 38.3L176.622 38.76C177.316 38.76 177.929 38.6467 178.462 38.42C178.996 38.1933 179.422 37.8867 179.742 37.5C180.062 37.1 180.222 36.6467 180.222 36.14C180.222 35.54 180.009 35.02 179.582 34.58C179.169 34.14 178.602 33.8067 177.882 33.58C177.162 33.34 176.342 33.2333 175.422 33.26C174.809 33.2733 174.189 33.3667 173.562 33.54C172.949 33.7 172.322 33.9333 171.682 34.24L172.202 35.74C172.776 35.46 173.336 35.2533 173.882 35.12C174.442 34.9867 174.989 34.9133 175.522 34.9C176.069 34.9 176.542 34.96 176.942 35.08C177.356 35.2 177.676 35.3733 177.902 35.6C178.129 35.8267 178.242 36.1 178.242 36.42C178.242 36.7133 178.142 36.9733 177.942 37.2C177.756 37.4133 177.489 37.5733 177.142 37.68C176.796 37.7867 176.389 37.84 175.922 37.84H174.122V39.22H176.042C176.829 39.22 177.442 39.3533 177.882 39.62C178.322 39.8867 178.542 40.2667 178.542 40.76C178.542 41.1067 178.422 41.4133 178.182 41.68C177.942 41.9333 177.596 42.1333 177.142 42.28C176.702 42.4267 176.176 42.5 175.562 42.5C174.896 42.5 174.236 42.4133 173.582 42.24C172.929 42.0533 172.349 41.8 171.842 41.48L171.262 42.94C171.862 43.3267 172.542 43.6267 173.302 43.84C174.076 44.04 174.862 44.14 175.662 44.14ZM189.941 44V41.76L189.841 41.34V37.52C189.841 36.7067 189.601 36.08 189.121 35.64C188.654 35.1867 187.948 34.96 187.001 34.96C186.374 34.96 185.761 35.0667 185.161 35.28C184.561 35.48 184.054 35.7533 183.641 36.1L182.841 34.66C183.388 34.22 184.041 33.8867 184.801 33.66C185.574 33.42 186.381 33.3 187.221 33.3C188.674 33.3 189.794 33.6533 190.581 34.36C191.368 35.0667 191.761 36.1467 191.761 37.6V44H189.941ZM186.461 44.12C185.674 44.12 184.981 43.9867 184.381 43.72C183.794 43.4533 183.341 43.0867 183.021 42.62C182.701 42.14 182.541 41.6 182.541 41C182.541 40.4267 182.674 39.9067 182.941 39.44C183.221 38.9733 183.668 38.6 184.281 38.32C184.908 38.04 185.748 37.9 186.801 37.9H190.161V39.28H186.881C185.921 39.28 185.274 39.44 184.941 39.76C184.608 40.08 184.441 40.4667 184.441 40.92C184.441 41.44 184.648 41.86 185.061 42.18C185.474 42.4867 186.048 42.64 186.781 42.64C187.501 42.64 188.128 42.48 188.661 42.16C189.208 41.84 189.601 41.3733 189.841 40.76L190.221 42.08C189.968 42.7067 189.521 43.2067 188.881 43.58C188.241 43.94 187.434 44.12 186.461 44.12ZM201.998 44V40.28L202.298 40.64H198.918C197.505 40.64 196.398 40.34 195.598 39.74C194.812 39.14 194.418 38.2667 194.418 37.12C194.418 35.8933 194.838 34.9667 195.678 34.34C196.532 33.7133 197.665 33.4 199.078 33.4H203.718V44H201.998ZM194.318 44L197.198 39.94H199.178L196.378 44H194.318ZM201.998 39.68V34.54L202.298 35.08H199.138C198.258 35.08 197.578 35.2467 197.098 35.58C196.618 35.9 196.378 36.4333 196.378 37.18C196.378 38.5667 197.272 39.26 199.058 39.26H202.298L201.998 39.68ZM207.465 44V33.4H212.385C213.625 33.4 214.598 33.64 215.305 34.12C216.025 34.5867 216.385 35.2533 216.385 36.12C216.385 36.9867 216.045 37.66 215.365 38.14C214.698 38.6067 213.811 38.84 212.705 38.84L213.005 38.32C214.271 38.32 215.211 38.5533 215.825 39.02C216.438 39.4867 216.745 40.1733 216.745 41.08C216.745 42 216.398 42.72 215.705 43.24C215.025 43.7467 213.978 44 212.565 44H207.465ZM209.345 42.52H212.425C213.225 42.52 213.825 42.4 214.225 42.16C214.625 41.9067 214.825 41.5067 214.825 40.96C214.825 40.4 214.638 39.9933 214.265 39.74C213.905 39.4733 213.331 39.34 212.545 39.34H209.345V42.52ZM209.345 37.96H212.225C212.958 37.96 213.511 37.8267 213.885 37.56C214.271 37.28 214.465 36.8933 214.465 36.4C214.465 35.8933 214.271 35.5133 213.885 35.26C213.511 35.0067 212.958 34.88 212.225 34.88H209.345V37.96ZM227.43 44L223.33 38.84L224.91 37.88L229.69 44H227.43ZM219.75 44V33.4H221.67V44H219.75ZM221.09 39.52V37.88H224.59V39.52H221.09ZM225.07 38.92L223.29 38.68L227.35 33.4H229.41L225.07 38.92ZM231.637 48C231.131 48 230.637 47.9133 230.157 47.74C229.677 47.58 229.264 47.34 228.917 47.02L229.737 45.58C230.004 45.8333 230.297 46.0267 230.617 46.16C230.937 46.2933 231.277 46.36 231.637 46.36C232.104 46.36 232.491 46.24 232.797 46C233.104 45.76 233.391 45.3333 233.657 44.72L234.317 43.26L234.517 43.02L238.677 33.4H240.557L235.417 45.06C235.111 45.8067 234.764 46.3933 234.377 46.82C234.004 47.2467 233.591 47.5467 233.137 47.72C232.684 47.9067 232.184 48 231.637 48ZM234.157 44.34L229.317 33.4H231.317L235.437 42.84L234.157 44.34Z" fill="#533738"/>
</svg>
